<svg width="2846" height="408" viewBox="0 0 2846 408" fill="none" xmlns="http://www.w3.org/2000/svg">
<rect y="14" width="368" height="393.589" rx="20" fill="white"/>
<path d="M62.755 95.5352C62.755 84.4895 71.7093 75.5352 82.755 75.5352H219.599C233.419 75.5352 245.914 78.5222 257.082 84.4964C268.25 90.4706 277.115 98.4785 283.676 108.52C290.377 118.562 293.728 129.811 293.728 142.268V160C293.728 165.929 293.099 171.378 291.842 176.348C288.432 189.824 290.45 207.727 297.636 219.627C297.95 220.148 298.253 220.673 298.544 221.203C303.011 229.211 305.245 239.253 305.245 251.328V281.263C305.245 293.211 301.895 304.143 295.194 314.057C288.632 323.972 279.768 331.916 268.599 337.89C257.431 343.737 245.076 346.661 231.535 346.661H82.755C71.7093 346.661 62.755 337.707 62.755 326.661V95.5352ZM231.954 306.431C240.051 306.431 246.961 303.952 252.685 298.995C258.408 293.91 261.27 287.809 261.27 280.691V250.756C261.27 243.638 258.408 237.537 252.685 232.453C246.961 227.368 239.981 224.826 231.744 224.826H152.068C141.022 224.826 132.068 215.852 132.068 204.806C132.068 193.76 141.022 184.786 152.068 184.786H219.599C227.835 184.786 234.885 182.371 240.749 177.541C246.751 172.584 249.753 166.61 249.753 159.618V142.268C249.753 134.896 246.751 128.604 240.749 123.392C234.885 118.181 227.835 115.575 219.599 115.575H126.939C115.894 115.575 106.939 124.529 106.939 135.575V286.431C106.939 297.476 115.894 306.431 126.939 306.431H231.954Z" fill="#8F51C9"/>
<path d="M2424 358C2402.93 358 2386.81 351.324 2375.62 337.971C2364.54 324.513 2359 305.115 2359 279.776V147.931C2359 124.17 2364.49 106.138 2375.47 93.837C2386.56 81.5357 2402.73 75.385 2424 75.385C2445.27 75.385 2461.39 81.5357 2472.38 93.837C2483.46 106.138 2489 124.17 2489 147.931V279.776C2489 305.115 2483.41 324.513 2472.23 337.971C2461.14 351.324 2445.07 358 2424 358ZM2424.45 306.902C2432.44 306.902 2436.43 298.754 2436.43 282.457V146.985C2436.43 133.317 2432.54 126.483 2424.75 126.483C2415.96 126.483 2411.57 133.475 2411.57 147.458V282.773C2411.57 291.394 2412.57 297.597 2414.56 301.382C2416.56 305.062 2419.86 306.902 2424.45 306.902ZM2388.5 69.5498V34.3806L2459.65 0V54.7251L2388.5 69.5498Z" fill="white"/>
<path d="M2258.17 358.42V132.661H2223V79H2352.56V132.661H2317.39V358.42H2258.17Z" fill="white"/>
<path d="M1480 358V79H1527V358H1480Z" fill="white"/>
<path d="M2652 355V76H2699V355H2652Z" fill="white"/>
<path d="M596 358.42V79H721.461V132.979H659.8V187.434H718.966V239.984H659.8V303.965H725.56V358.42H596Z" fill="white"/>
<path d="M452 358.42V79H523.528C542.722 79 556.668 83.9745 565.365 93.9236C574.162 103.767 578.561 120.066 578.561 142.822V155.047C578.561 168.171 576.312 178.808 571.813 186.958C567.414 195.107 560.666 200.452 551.569 202.993C563.466 206.168 571.413 213.63 575.412 225.378C579.511 237.02 581.56 251.256 581.56 268.085C581.56 286.184 579.96 302.007 576.761 315.554C573.562 329.102 567.764 339.633 559.367 347.148C550.969 354.663 539.023 358.42 523.528 358.42H452ZM503.584 184.259H514.381C519.279 184.259 522.428 182.248 523.828 178.226C525.227 174.204 525.927 169.388 525.927 163.779V135.678C525.927 126.681 522.178 122.183 514.681 122.183H503.584V184.259ZM508.832 309.204C522.528 309.204 529.376 302.324 529.376 288.565V253.637C529.376 245.699 528.226 239.455 525.927 234.904C523.728 230.247 519.529 227.918 513.331 227.918H503.584V308.886C505.783 309.098 507.533 309.204 508.832 309.204Z" fill="white"/>
<path d="M892 358.42V79H946.283L970.576 212.836V79H1021.56V358.42H969.976L943.584 218.71V358.42H892Z" fill="white"/>
<path d="M1544 358.42V79H1598.28L1622.58 212.836V79H1673.56V358.42H1621.98L1595.58 218.71V358.42H1544Z" fill="white"/>
<path d="M2074 358.42V79H2128.28L2152.58 212.836V79H2203.56V358.42H2151.98L2125.58 218.71V358.42H2074Z" fill="white"/>
<path d="M2501 358.42V79H2555.28L2579.58 212.836V79H2630.56V358.42H2578.98L2552.58 218.71V358.42H2501Z" fill="white"/>
<path d="M745 358.42V79H826.352C839.91 79 850.155 82.2811 857.084 88.8432C864.014 95.2995 868.634 104.402 870.944 116.15C873.355 127.793 874.56 141.499 874.56 157.269C874.56 172.51 872.702 184.682 868.986 193.784C865.37 202.887 858.491 209.184 848.347 212.677C856.683 214.476 862.508 218.869 865.822 225.854C869.237 232.734 870.944 241.677 870.944 252.685V358.42H818.668V249.033C818.668 240.884 817.061 235.856 813.848 233.951C810.734 231.94 805.662 230.935 798.632 230.935V358.42H745ZM798.933 182.512H811.738C819.07 182.512 822.736 174.098 822.736 157.269C822.736 146.368 821.933 139.223 820.326 135.837C818.719 132.45 815.706 130.756 811.287 130.756H798.933V182.512Z" fill="white"/>
<path d="M1183 358.42V79H1264.35C1277.91 79 1288.15 82.2811 1295.08 88.8432C1302.01 95.2995 1306.63 104.402 1308.94 116.15C1311.35 127.793 1312.56 141.499 1312.56 157.269C1312.56 172.51 1310.7 184.682 1306.99 193.784C1303.37 202.887 1296.49 209.184 1286.35 212.677C1294.68 214.476 1300.51 218.869 1303.82 225.854C1307.24 232.734 1308.94 241.677 1308.94 252.685V358.42H1256.67V249.033C1256.67 240.884 1255.06 235.856 1251.85 233.951C1248.73 231.94 1243.66 230.935 1236.63 230.935V358.42H1183ZM1236.93 182.512H1249.74C1257.07 182.512 1260.74 174.098 1260.74 157.269C1260.74 146.368 1259.93 139.223 1258.33 135.837C1256.72 132.45 1253.71 130.756 1249.29 130.756H1236.93V182.512Z" fill="white"/>
<path d="M1332 358.42V79H1404.41C1423.36 79 1437.62 84.6096 1447.2 95.8287C1456.77 106.942 1461.56 123.241 1461.56 144.727V275.547C1461.56 302.007 1457.17 322.434 1448.39 336.828C1439.72 351.223 1424.46 358.42 1402.61 358.42H1332ZM1384.96 309.045H1394.09C1403.76 309.045 1408.6 304.071 1408.6 294.122V149.966C1408.6 140.652 1407.4 134.672 1405.01 132.026C1402.71 129.274 1397.98 127.899 1390.8 127.899H1384.96V309.045Z" fill="white"/>
<path d="M1927 358.42L1950.58 79H2033.39L2056.56 358.42H2010.37L2006.9 313.332H1977.49L1974.44 358.42H1927ZM1980.96 268.72H2003.15L1992.47 126.628H1990.25L1980.96 268.72Z" fill="white"/>
<path d="M1038 358.42L1061.58 79H1144.39L1167.56 358.42H1121.37L1117.9 313.332H1088.49L1085.44 358.42H1038ZM1091.96 268.72H1114.15L1103.47 126.628H1101.25L1091.96 268.72Z" fill="white"/>
<path d="M1752.78 358.42C1731.78 358.42 1715.71 351.819 1704.57 338.617C1693.52 325.312 1688 306.133 1688 281.081V150.726C1688 127.233 1693.47 109.406 1704.42 97.2434C1715.46 85.0811 1731.58 79 1752.78 79C1773.98 79 1790.05 85.0811 1800.99 97.2434C1812.04 109.406 1817.56 127.233 1817.56 150.726V281.081C1817.56 306.133 1811.99 325.312 1800.84 338.617C1789.8 351.819 1773.78 358.42 1752.78 358.42ZM1753.23 307.9C1761.19 307.9 1765.17 299.844 1765.17 283.731V149.791C1765.17 136.277 1761.29 129.52 1753.53 129.52C1744.77 129.52 1740.39 136.433 1740.39 150.258V284.043C1740.39 292.567 1741.39 298.7 1743.38 302.442C1745.37 306.081 1748.65 307.9 1753.23 307.9Z" fill="white"/>
<path d="M2780.78 358.42C2759.78 358.42 2743.71 351.819 2732.57 338.617C2721.52 325.312 2716 306.133 2716 281.081V150.726C2716 127.233 2721.47 109.406 2732.42 97.2434C2743.46 85.0811 2759.58 79 2780.78 79C2801.98 79 2818.05 85.0811 2828.99 97.2434C2840.04 109.406 2845.56 127.233 2845.56 150.726V281.081C2845.56 306.133 2839.99 325.312 2828.84 338.617C2817.8 351.819 2801.78 358.42 2780.78 358.42ZM2781.23 307.9C2789.19 307.9 2793.17 299.844 2793.17 283.731V149.791C2793.17 136.277 2789.29 129.52 2781.53 129.52C2772.77 129.52 2768.39 136.433 2768.39 150.258V284.043C2768.39 292.567 2769.39 298.7 2771.38 302.442C2773.37 306.081 2776.65 307.9 2781.23 307.9Z" fill="white"/>
</svg>
